<svg width="16" height="9" viewBox="0 0 16 9" fill="none" xmlns="http://www.w3.org/2000/svg">
<path d="M4.04758 8.52C3.36758 8.52 2.73424 8.33333 2.14758 7.96C1.57424 7.57333 1.10758 7.06667 0.747578 6.44C0.387578 5.81333 0.207578 5.13333 0.207578 4.4C0.207578 3.65333 0.387578 2.97333 0.747578 2.36C1.10758 1.73333 1.57424 1.23333 2.14758 0.86C2.73424 0.473333 3.36758 0.28 4.04758 0.28C5.34091 0.28 6.66091 1.08667 8.00758 2.7C9.32758 1.08667 10.6342 0.28 11.9276 0.28C12.6209 0.28 13.2542 0.473333 13.8276 0.86C14.4142 1.23333 14.8876 1.73333 15.2476 2.36C15.6076 2.97333 15.7876 3.65333 15.7876 4.4C15.7876 5.13333 15.6076 5.81333 15.2476 6.44C14.8876 7.06667 14.4142 7.57333 13.8276 7.96C13.2542 8.33333 12.6209 8.52 11.9276 8.52C11.2609 8.52 10.6009 8.32 9.94758 7.92C9.30758 7.52 8.65425 6.92 7.98758 6.12C6.65425 7.72 5.34091 8.52 4.04758 8.52ZM4.50758 6.02C4.85425 6.02 5.20091 5.88 5.54758 5.6C5.89425 5.32 6.22758 4.92 6.54758 4.4C6.22758 3.88 5.89425 3.48667 5.54758 3.22C5.20091 2.94 4.86091 2.8 4.52758 2.8C4.26091 2.8 4.01424 2.88 3.78758 3.04C3.56091 3.18667 3.37425 3.38 3.22758 3.62C3.09424 3.84667 3.02758 4.10667 3.02758 4.4C3.02758 4.68 3.09424 4.94667 3.22758 5.2C3.37425 5.44 3.56091 5.64 3.78758 5.8C4.01424 5.94667 4.25425 6.02 4.50758 6.02ZM11.4876 6.02C11.7542 6.02 12.0009 5.94667 12.2276 5.8C12.4542 5.64 12.6342 5.44 12.7676 5.2C12.9009 4.94667 12.9676 4.68 12.9676 4.4C12.9676 4.10667 12.9009 3.84 12.7676 3.6C12.6342 3.36 12.4542 3.16667 12.2276 3.02C12.0009 2.87333 11.7542 2.8 11.4876 2.8C11.1542 2.8 10.8142 2.94 10.4676 3.22C10.1209 3.48667 9.78091 3.88 9.44758 4.4C9.78091 4.92 10.1142 5.32 10.4476 5.6C10.7942 5.88 11.1409 6.02 11.4876 6.02Z" fill="white"/>
</svg>
