<svg width="71" height="88" viewBox="0 0 71 88" fill="none" xmlns="http://www.w3.org/2000/svg">
<path d="M24.5922 78.2688H24.0638V76.9385H20.2187V72.0182H20.8018V76.4282H23.3531V72.0182H23.9362V76.4282H24.5922V78.2688Z" fill="#35414A"/>
<path d="M28.0547 76.9567H25.4487V72.0182H27.9453V72.5467H26.0137V74.1868H27.7995V74.7153H26.0137V76.4465H28.0547V76.9567Z" fill="#35414A"/>
<path d="M32.7198 76.9567H32.1367V74.697H29.5854V76.9385H29.0023V72.0182H29.5854V74.1868H32.1367V72.0182H32.7198V76.9567Z" fill="#35414A"/>
<path d="M36.9294 72.5285H35.508V76.9385H34.9248V72.5285H33.5034V72H36.9294V72.5285Z" fill="#35414A"/>
<path d="M38.2779 75.0797V76.9385H37.6948V72.0182H39.0433C39.5718 72.0182 39.9727 72.1458 40.2642 72.4009C40.5558 72.656 40.7016 73.0205 40.7016 73.4943C40.7016 73.9681 40.5376 74.3508 40.2096 74.6424C39.8816 74.9339 39.4442 75.0979 38.8975 75.0979H38.2779V75.0797ZM38.2779 72.5285V74.5512H38.8793C39.2802 74.5512 39.59 74.4601 39.7904 74.2779C40.0091 74.0957 40.1002 73.8405 40.1002 73.5125C40.1002 72.8565 39.7175 72.5285 38.9522 72.5285H38.2779Z" fill="#35414A"/>
<path d="M20.3645 80.7289V81.8952H20V78.7973H20.8383C21.1663 78.7973 21.4214 78.8702 21.6036 79.0342C21.7859 79.1982 21.877 79.4169 21.877 79.7084C21.877 80 21.7677 80.2369 21.5672 80.4191C21.3667 80.6014 21.0934 80.6925 20.7472 80.6925H20.3645V80.7289ZM20.3645 79.1253V80.3827H20.7472C21.0023 80.3827 21.1845 80.328 21.3121 80.2187C21.4396 80.1093 21.5125 79.9453 21.5125 79.7449C21.5125 79.344 21.2756 79.1253 20.7836 79.1253H20.3645Z" fill="#095D96"/>
<path d="M24.5194 81.8952H24.1184L23.7904 81.0387H22.4784L22.1686 81.8952H21.7677L22.9522 78.8155H23.3349L24.5194 81.8952ZM23.6629 80.6925L23.1708 79.3804C23.1526 79.344 23.1344 79.2711 23.1162 79.18C23.0979 79.2711 23.0797 79.344 23.0615 79.3804L22.5877 80.6925H23.6629Z" fill="#095D96"/>
<path d="M24.7745 81.8041V81.4214C25.0114 81.6036 25.2847 81.6948 25.5945 81.6948C25.8132 81.6948 25.9954 81.6401 26.123 81.5308C26.2506 81.4214 26.3235 81.2756 26.3235 81.0934C26.3235 80.6925 26.0501 80.492 25.5216 80.492H25.1936V80.2005H25.4852C25.7221 80.2005 25.8861 80.1458 26.0137 80.0547C26.1412 79.9636 26.1959 79.8178 26.1959 79.6355C26.1959 79.4898 26.1412 79.3622 26.0319 79.2711C25.9226 79.18 25.7768 79.1253 25.5945 79.1253C25.3394 79.1253 25.0843 79.1982 24.8474 79.3622V78.9977C25.0661 78.8702 25.3394 78.8155 25.631 78.8155C25.9226 78.8155 26.1595 78.8884 26.3235 79.0159C26.4875 79.1617 26.5786 79.344 26.5786 79.5626C26.5786 79.9636 26.3781 80.2187 25.9954 80.328C26.2141 80.3462 26.3781 80.4374 26.5057 80.5649C26.6333 80.6925 26.6879 80.8747 26.6879 81.0569C26.6879 81.3303 26.5786 81.5672 26.3781 81.7312C26.1777 81.8952 25.9043 81.9863 25.5581 81.9863C25.2301 81.9863 24.9567 81.9317 24.7745 81.8041Z" fill="#095D96"/>
<path d="M27.344 81.8952V78.7973H28.2187C28.492 78.7973 28.6925 78.8702 28.8565 78.9977C29.0205 79.1253 29.0934 79.2893 29.0934 79.508C29.0934 79.6902 29.0387 79.836 28.9476 79.9636C28.8565 80.0911 28.7289 80.1822 28.5649 80.2369C28.7654 80.2551 28.9476 80.3462 29.0569 80.4738C29.1845 80.6014 29.2392 80.7836 29.2392 80.9841C29.2392 81.2392 29.1481 81.4579 28.9476 81.6219C28.7654 81.7859 28.5285 81.8588 28.2369 81.8588H27.344V81.8952ZM27.7084 79.1253V80.1276H28.0729C28.2733 80.1276 28.4191 80.0729 28.5467 79.9818C28.656 79.8907 28.7107 79.7449 28.7107 79.5809C28.7107 79.2893 28.5103 79.1253 28.1276 79.1253H27.7084ZM27.7084 80.4556V81.5672H28.2005C28.4191 81.5672 28.5831 81.5125 28.6925 81.4214C28.8018 81.3121 28.8747 81.1845 28.8747 81.0023C28.8747 80.6378 28.6196 80.4556 28.1276 80.4556H27.7084Z" fill="#095D96"/>
<path d="M32.3553 81.8952H31.9909V79.6538C31.9909 79.4533 31.9909 79.3075 32.0091 79.2346C31.9909 79.3075 31.9544 79.3622 31.918 79.4351L30.3326 81.8952H29.877V78.7973H30.2414V80.9658C30.2414 81.2027 30.2414 81.3485 30.2232 81.4214C30.2597 81.3667 30.2961 81.2939 30.3508 81.221L31.8998 78.7973H32.3553V81.8952Z" fill="#095D96"/>
<path d="M34.9977 79.1253H34.1048V81.877H33.7403V79.1253H32.8474V78.7973H34.9795V79.1253H34.9977Z" fill="#095D96"/>
<path d="M37.9681 81.8952H37.6036V79.6538C37.6036 79.4533 37.6036 79.3075 37.6219 79.2346H37.6036C37.5854 79.3075 37.549 79.3622 37.5125 79.4351L35.9271 81.8952H35.4715V78.7973H35.836V80.9658C35.836 81.2027 35.836 81.3485 35.8178 81.4214C35.8542 81.3667 35.8907 81.2939 35.9453 81.221L37.4943 78.7973H37.9499V81.8952H37.9681Z" fill="#095D96"/>
<path d="M40.5558 81.8952H40.1913V80.5831H39.7357C39.6446 80.5831 39.5717 80.6014 39.5171 80.656C39.4442 80.7107 39.3895 80.8018 39.2984 80.9658L38.9157 81.8952H38.4783L38.9522 80.8565C38.9886 80.7836 39.025 80.7107 39.0979 80.6378C39.1526 80.5649 39.2255 80.5103 39.3166 80.4738C39.1162 80.4374 38.9522 80.328 38.8428 80.2005C38.7335 80.0547 38.6788 79.8907 38.6788 79.672C38.6788 79.4169 38.7699 79.1982 38.9522 79.0342C39.1344 78.8702 39.3713 78.7973 39.6629 78.7973H40.5558V81.8952ZM40.2096 80.2551V79.1435H39.7175C39.5171 79.1435 39.3531 79.1982 39.2437 79.2893C39.1344 79.3804 39.0797 79.5262 39.0797 79.6902C39.0797 79.8724 39.1344 80 39.2437 80.1093C39.3531 80.2187 39.5171 80.2551 39.6993 80.2551H40.2096Z" fill="#095D96"/>
<path d="M24.8474 87.9818H24.3007V84.8474C24.3007 84.5923 24.3189 84.3007 24.3553 83.9362H24.3371C24.2825 84.1549 24.246 84.3007 24.1913 84.3918L22.5877 87.9818H22.3143L20.7107 84.41C20.656 84.3007 20.6196 84.1549 20.5649 83.9362H20.5467C20.5649 84.1184 20.5649 84.4282 20.5649 84.8474V87.9818H20.0364V83.2984H20.7654L22.205 86.5604C22.3143 86.8155 22.3872 86.9977 22.4237 87.1253H22.4419C22.533 86.8702 22.6059 86.6697 22.6606 86.5604L24.1184 83.3166H24.8109V87.9818H24.8474Z" fill="#35414A"/>
<path d="M27.9636 87.9818C27.3075 87.9818 26.7608 87.7631 26.3781 87.3257C25.9772 86.8884 25.7768 86.3235 25.7768 85.6128C25.7768 84.8656 25.9772 84.2642 26.3781 83.8087C26.779 83.3531 27.344 83.1344 28.0364 83.1344C28.6743 83.1344 29.2027 83.3531 29.6036 83.7904C30.0046 84.2278 30.1868 84.7927 30.1868 85.5034C30.1868 86.2688 29.9863 86.8702 29.5854 87.3075C29.1845 87.7631 28.6378 87.9818 27.9636 87.9818ZM28 83.6447C27.508 83.6447 27.1071 83.8269 26.7973 84.1731C26.4875 84.5194 26.3417 84.9932 26.3417 85.5763C26.3417 86.1595 26.4875 86.615 26.7973 86.9613C27.0888 87.3075 27.4897 87.4898 27.9636 87.4898C28.4738 87.4898 28.8747 87.3257 29.1845 86.9795C29.4761 86.6515 29.6219 86.1777 29.6219 85.5763C29.6219 84.9567 29.4761 84.4829 29.1845 84.1367C28.9112 83.8087 28.5102 83.6447 28 83.6447Z" fill="#35414A"/>
<path d="M30.8064 87.7084V87.1071C31.1708 87.3804 31.59 87.508 32.0455 87.508C32.3736 87.508 32.6469 87.4351 32.8474 87.2711C33.0478 87.1071 33.1389 86.8884 33.1389 86.615C33.1389 86.0137 32.738 85.7221 31.918 85.7221H31.4624V85.2665H31.918C32.2642 85.2665 32.5376 85.1936 32.7198 85.0478C32.902 84.902 33.0114 84.6834 33.0114 84.41C33.0114 84.1731 32.9385 83.9909 32.7745 83.8451C32.6105 83.6993 32.3918 83.6264 32.1184 83.6264C31.7358 83.6264 31.3531 83.754 30.9704 83.9909V83.4442C31.3166 83.262 31.7175 83.1526 32.1549 83.1526C32.5922 83.1526 32.9385 83.262 33.1936 83.4624C33.4487 83.6811 33.5763 83.9544 33.5763 84.3007C33.5763 84.902 33.2847 85.2847 32.6834 85.4487V85.467C33.0114 85.5034 33.2665 85.631 33.4487 85.8314C33.631 86.0319 33.7403 86.287 33.7403 86.5968C33.7403 87.0342 33.5945 87.3622 33.2847 87.6173C32.9749 87.8724 32.5558 88 32.0273 88C31.4989 88 31.0979 87.8907 30.8064 87.7084Z" fill="#35414A"/>
<path d="M37.1481 83.8087H35.2711V87.9818H34.7244V83.2984H37.1481V83.8087Z" fill="#35414A"/>
<path d="M41.0296 87.9818H40.4282L39.9362 86.6697H37.9499L37.4761 87.9818H36.8747L38.6606 83.2984H39.2255L41.0296 87.9818ZM39.7358 86.1777L39.0068 84.1913C38.9886 84.1184 38.9522 84.0273 38.9339 83.8815C38.9157 84.0091 38.8793 84.1184 38.861 84.1913L38.1321 86.1777H39.7358Z" fill="#35414A"/>
<path d="M53.3 35.2H70.8C70.8 25.5 62.9 17.6 53.2 17.6V35.2H53.3Z" fill="#095D96"/>
<path d="M35.7 17.6H53.3C53.3 7.9 45.4 0 35.7 0V17.6Z" fill="#397BAB"/>
<path d="M18.1 35.2H35.7C35.7 25.5 27.8 17.6 18.1 17.6V35.2Z" fill="#35414A"/>
<path d="M18.1 52.8H35.7C35.7 43.1 27.8 35.2 18.1 35.2V52.8Z" fill="#397BAB"/>
<path d="M0.599991 35.2H18.1C18.1 25.5 10.2 17.6 0.499992 17.6V35.2H0.599991Z" fill="#94C1C7"/>
<path d="M35.7 17.6H18.1C18.1 7.9 26 0 35.7 0V17.6Z" fill="#095D96"/>
<path d="M53.3 35.2H35.7C35.7 25.5 43.6 17.6 53.3 17.6V35.2Z" fill="#BEDFE5"/>
<path d="M18.1 17.6H0.599983C0.599983 7.9 8.49998 0 18.2 0V17.6H18.1Z" fill="#BEDFE5"/>
<path d="M18.1 52.7H0.599983C0.599983 43 8.49998 35.1 18.2 35.1V52.7H18.1Z" fill="#095D96"/>
<path d="M35.7 70.4H18.1C18.1 60.7 26 52.8 35.7 52.8V70.4Z" fill="#35414A"/>
<path d="M35.7 35.3H53.3C53.3 45 45.4 52.9 35.7 52.9V35.3Z" fill="#94C1C7"/>
<path d="M35.7 52.8H53.3C53.3 62.5 45.4 70.4 35.7 70.4V52.8Z" fill="#397BAB"/>
<path d="M53.3 35.2H70.8C70.8 44.9 62.9 52.8 53.2 52.8V35.2H53.3Z" fill="#35414A"/>
<path d="M0.599991 70.4H18.1C18.1 60.7 10.2 52.8 0.499992 52.8V70.4H0.599991Z" fill="#BEDFE5"/>
<path d="M18.1 70.4H0.599983C0.599983 80.1 8.49998 88 18.2 88V70.4H18.1Z" fill="#397BAB"/>
</svg>
