<svg width="241" height="163" viewBox="0 0 241 163" fill="none" xmlns="http://www.w3.org/2000/svg">
<path fill-rule="evenodd" clip-rule="evenodd" d="M119.547 62.9159C154.294 62.9159 182.463 91.0843 182.463 125.832H119.547V62.9159Z" fill="white"/>
<path opacity="0.79" fill-rule="evenodd" clip-rule="evenodd" d="M56.6309 62.9159C91.3784 62.9159 119.547 91.0843 119.547 125.832H56.6309V62.9159Z" fill="white"/>
<path opacity="0.79" fill-rule="evenodd" clip-rule="evenodd" d="M182.463 0C147.715 0 119.547 28.1684 119.547 62.9159L182.463 62.9159V0Z" fill="white"/>
<path opacity="0.2" fill-rule="evenodd" clip-rule="evenodd" d="M119.547 0C84.7994 0 56.6309 28.1684 56.6309 62.9159L119.547 62.9159V0Z" fill="white"/>
<path fill-rule="evenodd" clip-rule="evenodd" d="M62.4688 162.245C72.4708 140.74 94.2678 125.832 119.547 125.832L119.547 162.245H62.4688Z" fill="white"/>
<path opacity="0.3" fill-rule="evenodd" clip-rule="evenodd" d="M176.625 162.245C166.623 140.74 144.826 125.832 119.547 125.832L119.547 162.245H176.625Z" fill="white"/>
<path fill-rule="evenodd" clip-rule="evenodd" d="M0 162.245C10.0977 140.989 31.7633 126.293 56.8614 126.293L56.8614 162.245H0Z" fill="white"/>
<path fill-rule="evenodd" clip-rule="evenodd" d="M241 39.809C231.789 16.4942 209.052 0 182.463 0L182.463 62.9159L241 62.9159V39.809Z" fill="white"/>
<path opacity="0.5" fill-rule="evenodd" clip-rule="evenodd" d="M241 63.0659C208.295 65.3142 182.463 92.5563 182.463 125.832H241V63.0659Z" fill="white"/>
<path fill-rule="evenodd" clip-rule="evenodd" d="M241 125.832H182.463L182.463 162.245H233.777C236.691 158.146 239.125 153.684 241 148.939V125.832Z" fill="white"/>
</svg>
