<svg width="241" height="163" viewBox="0 0 241 163" fill="none" xmlns="http://www.w3.org/2000/svg">
<path fill-rule="evenodd" clip-rule="evenodd" d="M121.453 99.3289C86.7056 99.3289 58.5372 71.1605 58.5372 36.413L121.453 36.413L121.453 99.3289Z" fill="#86B0CB"/>
<path opacity="0.79" fill-rule="evenodd" clip-rule="evenodd" d="M184.369 99.3289C149.622 99.3289 121.453 71.1605 121.453 36.413L184.369 36.413L184.369 99.3289Z" fill="#86B0CB"/>
<path opacity="0.79" fill-rule="evenodd" clip-rule="evenodd" d="M58.5372 162.245C93.2847 162.245 121.453 134.076 121.453 99.3289L58.5372 99.3289L58.5372 162.245Z" fill="#86B0CB"/>
<path opacity="0.2" fill-rule="evenodd" clip-rule="evenodd" d="M121.453 162.245C156.201 162.245 184.369 134.076 184.369 99.3289L121.453 99.3289L121.453 162.245Z" fill="#86B0CB"/>
<path fill-rule="evenodd" clip-rule="evenodd" d="M178.531 7.62939e-06C168.529 21.5043 146.732 36.4129 121.453 36.4129L121.453 2.63948e-06L178.531 7.62939e-06Z" fill="#86B0CB"/>
<path opacity="0.3" fill-rule="evenodd" clip-rule="evenodd" d="M64.3751 2.63947e-06C74.3771 21.5043 96.1741 36.4129 121.453 36.4129L121.453 7.62939e-06L64.3751 2.63947e-06Z" fill="#86B0CB"/>
<path fill-rule="evenodd" clip-rule="evenodd" d="M241 0.000236511C230.902 21.2564 209.237 35.9522 184.139 35.9522L184.139 0.00023154L241 0.000236511Z" fill="#86B0CB"/>
<path fill-rule="evenodd" clip-rule="evenodd" d="M2.63684e-05 122.436C9.21083 145.751 31.9478 162.245 58.5372 162.245L58.5372 99.3289L2.83885e-05 99.3289L2.63684e-05 122.436Z" fill="#86B0CB"/>
<path opacity="0.5" fill-rule="evenodd" clip-rule="evenodd" d="M-1.90735e-05 99.1789C32.7047 96.9306 58.5372 69.6885 58.5372 36.4129L-1.35863e-05 36.4129L-1.90735e-05 99.1789Z" fill="#86B0CB"/>
<path fill-rule="evenodd" clip-rule="evenodd" d="M-1.90735e-05 36.4129L58.5372 36.4129L58.5372 7.62939e-06L7.22291 3.14336e-06C4.30938 4.09843 1.87456 8.56091 -1.70534e-05 13.3059L-1.90735e-05 36.4129Z" fill="#86B0CB"/>
</svg>
