<svg width="116" height="89" viewBox="0 0 116 89" fill="none" xmlns="http://www.w3.org/2000/svg">
<path d="M25.3 34.9H22.4V27.6H1.29999V0.599998H4.49998V24.8H18.5V0.599998H21.7V24.8H25.3V34.9Z" fill="#35414A"/>
<path d="M44.3 27.7H30V0.599998H43.7V3.5H33.1V12.5H42.9V15.4H33.1V24.9H44.3V27.7Z" fill="#35414A"/>
<path d="M69.9 27.7H66.7V15.3H52.7V27.6H49.5V0.599998H52.7V12.5H66.7V0.599998H69.9V27.7Z" fill="#35414A"/>
<path d="M93 3.4H85.2V27.6H82V3.4H74.2V0.5H93V3.4Z" fill="#35414A"/>
<path d="M100.4 17.4V27.6H97.2V0.599998H104.6C107.5 0.599998 109.7 1.3 111.3 2.7C112.9 4.1 113.7 6.1 113.7 8.7C113.7 11.3 112.8 13.4 111 15C109.2 16.6 106.8 17.5 103.8 17.5H100.4V17.4ZM100.4 3.4V14.5H103.7C105.9 14.5 107.6 14 108.7 13C109.9 12 110.4 10.6 110.4 8.8C110.4 5.2 108.3 3.4 104.1 3.4H100.4Z" fill="#35414A"/>
<path d="M2.09998 48.4V54.8H0.0999756V37.8H4.69997C6.49997 37.8 7.89998 38.2 8.89998 39.1C9.89998 40 10.4 41.2 10.4 42.8C10.4 44.4 9.79997 45.7 8.69997 46.7C7.59997 47.7 6.09997 48.2 4.19997 48.2H2.09998V48.4ZM2.09998 39.6V46.5H4.19997C5.59997 46.5 6.59998 46.2 7.29998 45.6C7.99998 45 8.39998 44.1 8.39998 43C8.39998 40.8 7.09998 39.6 4.39998 39.6H2.09998Z" fill="#095D96"/>
<path d="M24.9 54.8H22.7L20.9 50.1H13.7L12 54.8H9.79999L16.3 37.9H18.4L24.9 54.8ZM20.2 48.2L17.5 41C17.4 40.8 17.3 40.4 17.2 39.9C17.1 40.4 17 40.8 16.9 41L14.3 48.2H20.2Z" fill="#095D96"/>
<path d="M26.3 54.3V52.2C27.6 53.2 29.1 53.7 30.8 53.7C32 53.7 33 53.4 33.7 52.8C34.4 52.2 34.8 51.4 34.8 50.4C34.8 48.2 33.3 47.1 30.4 47.1H28.6V45.5H30.2C31.5 45.5 32.4 45.2 33.1 44.7C33.8 44.2 34.1 43.4 34.1 42.4C34.1 41.6 33.8 40.9 33.2 40.4C32.6 39.9 31.8 39.6 30.8 39.6C29.4 39.6 28 40 26.7 40.9V38.9C27.9 38.2 29.4 37.9 31 37.9C32.6 37.9 33.9 38.3 34.8 39C35.7 39.8 36.2 40.8 36.2 42C36.2 44.2 35.1 45.6 33 46.2C34.2 46.3 35.1 46.8 35.8 47.5C36.5 48.2 36.8 49.2 36.8 50.2C36.8 51.7 36.2 53 35.1 53.9C34 54.8 32.5 55.3 30.6 55.3C28.8 55.3 27.3 55 26.3 54.3Z" fill="#095D96"/>
<path d="M40.4 54.8V37.8H45.2C46.7 37.8 47.8 38.2 48.7 38.9C49.6 39.6 50 40.5 50 41.7C50 42.7 49.7 43.5 49.2 44.2C48.7 44.9 48 45.4 47.1 45.7C48.2 45.8 49.2 46.3 49.8 47C50.5 47.7 50.8 48.7 50.8 49.8C50.8 51.2 50.3 52.4 49.2 53.3C48.2 54.2 46.9 54.6 45.3 54.6H40.4V54.8ZM42.4 39.6V45.1H44.4C45.5 45.1 46.3 44.8 47 44.3C47.6 43.8 47.9 43 47.9 42.1C47.9 40.5 46.8 39.6 44.7 39.6H42.4ZM42.4 46.9V53H45.1C46.3 53 47.2 52.7 47.8 52.2C48.4 51.6 48.8 50.9 48.8 49.9C48.8 47.9 47.4 46.9 44.7 46.9H42.4Z" fill="#095D96"/>
<path d="M67.9 54.8H65.9V42.5C65.9 41.4 65.9 40.6 66 40.2C65.9 40.6 65.7 40.9 65.5 41.3L56.8 54.8H54.3V37.8H56.3V49.7C56.3 51 56.3 51.8 56.2 52.2C56.4 51.9 56.6 51.5 56.9 51.1L65.4 37.8H67.9V54.8Z" fill="#095D96"/>
<path d="M82.4 39.6H77.5V54.7H75.5V39.6H70.6V37.8H82.3V39.6H82.4Z" fill="#095D96"/>
<path d="M98.7 54.8H96.7V42.5C96.7 41.4 96.7 40.6 96.8 40.2H96.7C96.6 40.6 96.4 40.9 96.2 41.3L87.5 54.8H85V37.8H87V49.7C87 51 87 51.8 86.9 52.2C87.1 51.9 87.3 51.5 87.6 51.1L96.1 37.8H98.6V54.8H98.7Z" fill="#095D96"/>
<path d="M112.9 54.8H110.9V47.6H108.4C107.9 47.6 107.5 47.7 107.2 48C106.8 48.3 106.5 48.8 106 49.7L103.9 54.8H101.5L104.1 49.1C104.3 48.7 104.5 48.3 104.9 47.9C105.2 47.5 105.6 47.2 106.1 47C105 46.8 104.1 46.2 103.5 45.5C102.9 44.7 102.6 43.8 102.6 42.6C102.6 41.2 103.1 40 104.1 39.1C105.1 38.2 106.4 37.8 108 37.8H112.9V54.8ZM111 45.8V39.7H108.3C107.2 39.7 106.3 40 105.7 40.5C105.1 41 104.8 41.8 104.8 42.7C104.8 43.7 105.1 44.4 105.7 45C106.3 45.6 107.2 45.8 108.2 45.8H111Z" fill="#095D96"/>
<path d="M26.7 88.2H23.7V71C23.7 69.6 23.8 68 24 66H23.9C23.6 67.2 23.4 68 23.1 68.5L14.3 88.2H12.8L3.99998 68.6C3.69998 68 3.49998 67.2 3.19998 66H3.09998C3.19998 67 3.19998 68.7 3.19998 71V88.2H0.299988V62.5H4.29999L12.2 80.4C12.8 81.8 13.2 82.8 13.4 83.5H13.5C14 82.1 14.4 81 14.7 80.4L22.7 62.6H26.5V88.2H26.7Z" fill="#35414A"/>
<path d="M43.8 88.2C40.2 88.2 37.2 87 35.1 84.6C32.9 82.2 31.8 79.1 31.8 75.2C31.8 71.1 32.9 67.8 35.1 65.3C37.3 62.8 40.4 61.6 44.2 61.6C47.7 61.6 50.6 62.8 52.8 65.2C55 67.6 56 70.7 56 74.6C56 78.8 54.9 82.1 52.7 84.5C50.5 87 47.5 88.2 43.8 88.2ZM44 64.4C41.3 64.4 39.1 65.4 37.4 67.3C35.7 69.2 34.9 71.8 34.9 75C34.9 78.2 35.7 80.7 37.4 82.6C39 84.5 41.2 85.5 43.8 85.5C46.6 85.5 48.8 84.6 50.5 82.7C52.1 80.9 52.9 78.3 52.9 75C52.9 71.6 52.1 69 50.5 67.1C49 65.3 46.8 64.4 44 64.4Z" fill="#35414A"/>
<path d="M59.4 86.7V83.4C61.4 84.9 63.7 85.6 66.2 85.6C68 85.6 69.5 85.2 70.6 84.3C71.7 83.4 72.2 82.2 72.2 80.7C72.2 77.4 70 75.8 65.5 75.8H63V73.3H65.5C67.4 73.3 68.9 72.9 69.9 72.1C70.9 71.3 71.5 70.1 71.5 68.6C71.5 67.3 71.1 66.3 70.2 65.5C69.3 64.7 68.1 64.3 66.6 64.3C64.5 64.3 62.4 65 60.3 66.3V63.3C62.2 62.3 64.4 61.7 66.8 61.7C69.2 61.7 71.1 62.3 72.5 63.4C73.9 64.6 74.6 66.1 74.6 68C74.6 71.3 73 73.4 69.7 74.3V74.4C71.5 74.6 72.9 75.3 73.9 76.4C74.9 77.5 75.5 78.9 75.5 80.6C75.5 83 74.7 84.8 73 86.2C71.3 87.6 69 88.3 66.1 88.3C63.2 88.3 61 87.7 59.4 86.7Z" fill="#35414A"/>
<path d="M94.2 65.3H83.9V88.2H80.9V62.5H94.2V65.3Z" fill="#35414A"/>
<path d="M115.5 88.2H112.2L109.5 81H98.6L96 88.2H92.7L102.5 62.5H105.6L115.5 88.2ZM108.4 78.3L104.4 67.4C104.3 67 104.1 66.5 104 65.7C103.9 66.4 103.7 67 103.6 67.4L99.6 78.3H108.4Z" fill="#35414A"/>
</svg>
