<svg width="137" height="172" viewBox="0 0 137 172" fill="none" xmlns="http://www.w3.org/2000/svg">
<path fill-rule="evenodd" clip-rule="evenodd" d="M68.5 102.75C87.4158 102.75 102.75 118.084 102.75 137H68.5V102.75Z" fill="#86BCC1" fill-opacity="0.2"/>
<path fill-rule="evenodd" clip-rule="evenodd" d="M102.75 68.5C83.8342 68.5 68.5 83.8342 68.5 102.75H102.75V68.5Z" fill="#86BCC1" fill-opacity="0.3"/>
<path fill-rule="evenodd" clip-rule="evenodd" d="M102.75 34.25C83.8342 34.25 68.5 49.5842 68.5 68.5H102.75V34.25Z" fill="#86BCC1" fill-opacity="0.4"/>
<path fill-rule="evenodd" clip-rule="evenodd" d="M137 34.25C118.084 34.25 102.75 49.5842 102.75 68.5H137V34.25Z" fill="#86BCC1" fill-opacity="0.4"/>
<path fill-rule="evenodd" clip-rule="evenodd" d="M137 102.75C118.084 102.75 102.75 118.084 102.75 137H137V102.75Z" fill="#86BCC1" fill-opacity="0.2"/>
<path fill-rule="evenodd" clip-rule="evenodd" d="M68.5 137C49.5842 137 34.25 121.666 34.25 102.75H68.5V137Z" fill="#86BCC1" fill-opacity="0.2"/>
<path fill-rule="evenodd" clip-rule="evenodd" d="M34.25 102.75C15.3342 102.75 0 87.4158 0 68.5H34.25V102.75Z" fill="#86BCC1" fill-opacity="0.3"/>
<path fill-rule="evenodd" clip-rule="evenodd" d="M102.75 171.25C121.666 171.25 137 155.916 137 137H102.75V171.25Z" fill="#86BCC1" fill-opacity="0.1"/>
<path fill-rule="evenodd" clip-rule="evenodd" d="M34.25 34.25C15.3342 34.25 0 49.5842 0 68.5H34.25V34.25Z" fill="#86BCC1" fill-opacity="0.4"/>
<path fill-rule="evenodd" clip-rule="evenodd" d="M68.5 0C49.5842 0 34.25 15.3342 34.25 34.25H68.5V0Z" fill="#86BCC1" fill-opacity="0.5"/>
<path fill-rule="evenodd" clip-rule="evenodd" d="M68.5 102.75C49.5842 102.75 34.25 87.4158 34.25 68.5H68.5V102.75Z" fill="#86BCC1" fill-opacity="0.3"/>
<path fill-rule="evenodd" clip-rule="evenodd" d="M34.25 34.25C53.1658 34.25 68.5 49.5842 68.5 68.5H34.25V34.25Z" fill="#86BCC1" fill-opacity="0.4"/>
<path fill-rule="evenodd" clip-rule="evenodd" d="M102.75 68.5C121.666 68.5 137 83.8342 137 102.75H102.75V68.5Z" fill="#86BCC1" fill-opacity="0.3"/>
<path fill-rule="evenodd" clip-rule="evenodd" d="M68.5 0C87.4158 0 102.75 15.3342 102.75 34.25H68.5V0Z" fill="#86BCC1" fill-opacity="0.5"/>
<path fill-rule="evenodd" clip-rule="evenodd" d="M102.75 0C121.666 0 137 15.3342 137 34.25H102.75V0Z" fill="#86BCC1" fill-opacity="0.5"/>
</svg>
