<svg width="111" height="148" viewBox="0 0 111 148" fill="none" xmlns="http://www.w3.org/2000/svg">
<path opacity="0.3" fill-rule="evenodd" clip-rule="evenodd" d="M0.000102997 33.0464L0 33.0464L-2.88901e-06 1.14441e-05L51.8011 6.9155e-06C42.7238 19.5162 22.942 33.0464 0.000102997 33.0464Z" fill="#86B0CB"/>
<path fill-rule="evenodd" clip-rule="evenodd" d="M110.224 111.116C101.865 132.275 81.2303 147.245 57.0992 147.245L57.0991 147.245L57.0991 90.1456L110.224 90.1456L110.224 111.116Z" fill="#86B0CB"/>
<path opacity="0.5" fill-rule="evenodd" clip-rule="evenodd" d="M110.225 90.0095C80.5435 87.9691 57.0992 63.2456 57.0992 33.0465L110.225 33.0465L110.225 90.0095Z" fill="#86B0CB"/>
<path fill-rule="evenodd" clip-rule="evenodd" d="M110.225 33.0464L57.0992 33.0464L57.0992 -5.34058e-05L103.669 -5.74771e-05C106.314 3.71943 108.523 7.76931 110.225 12.0756L110.225 33.0464Z" fill="#86B0CB"/>
</svg>
