<svg width="64" height="64" viewBox="0 0 64 64" fill="none" xmlns="http://www.w3.org/2000/svg">
<path fill-rule="evenodd" clip-rule="evenodd" d="M15.5642 12.426C16.2696 12.426 16.8415 12.9979 16.8415 13.7033V41.1865L22.2797 33.3581L22.2797 33.358L22.2797 33.358L22.2943 33.337L23.8454 31.1041C24.4756 30.197 25.7218 29.9725 26.629 30.6026L28.8827 32.1682L28.8827 32.1683L28.8827 32.1684L30.5369 33.3175C31.4441 33.9477 32.6903 33.7232 33.3205 32.816L38.6338 25.1674L36.6657 23.8003C36.0552 23.3762 36.1044 22.4578 36.7568 22.1014L46.1139 16.9895C46.8371 16.5945 47.7009 17.1946 47.5831 18.0101L46.0583 28.5629C45.952 29.2987 45.1086 29.6653 44.4981 29.2412L42.5301 27.8741L34.7225 39.1134C33.975 40.1893 32.4969 40.4556 31.421 39.7082L31.4015 39.6945C31.3237 39.6393 31.245 39.5852 31.1664 39.5312L31.1347 39.5094L31.1271 39.5041L27.8186 37.2057C26.9114 36.5756 25.6651 36.8001 25.035 37.7073L19.4347 45.7689C19.5678 45.7869 19.7035 45.7962 19.8415 45.7962H51.4794C52.1014 45.7962 52.6055 46.3004 52.6055 46.9223C52.6055 47.5443 52.1014 48.0484 51.4794 48.0484H14.4696C14.3688 48.0484 14.2871 47.9667 14.2871 47.8659L14.2871 47.6835L14.287 47.6834L14.2869 47.6833V13.7033C14.2869 12.9979 14.8588 12.426 15.5642 12.426Z" fill="white"/>
</svg>
