<svg width="36" height="33" viewBox="0 0 36 33" fill="none" xmlns="http://www.w3.org/2000/svg">
<path fill-rule="evenodd" clip-rule="evenodd" d="M1.17949 0C1.83091 0 2.35898 0.528076 2.35898 1.17949V26.5589L8.73957 17.3739C9.36975 16.4668 10.616 16.2422 11.5232 16.8724L13.4785 18.2307L13.4785 18.231L13.4786 18.2313L14.9551 19.257C15.8209 19.8584 17.0104 19.6441 17.6118 18.7783L22.483 11.7661L20.7675 10.5743C20.1569 10.1502 20.2062 9.23188 20.8586 8.87548L29.2562 4.28777C29.9794 3.89269 30.8432 4.49277 30.7253 5.30835L29.3569 14.7791C29.2506 15.5148 28.4072 15.8815 27.7967 15.4574L26.081 14.2655L18.8712 24.6443C18.181 25.6379 16.816 25.8838 15.8224 25.1936L15.8085 25.1838C15.6985 25.1062 15.5873 25.0295 15.4763 24.9531L15.4315 24.9222L15.4253 24.9179L12.6215 22.9702C11.7144 22.34 10.4681 22.5645 9.83791 23.4717L4.81417 30.7035C4.80122 30.7221 4.78802 30.7405 4.77456 30.7585C4.96359 30.7959 5.159 30.8154 5.35898 30.8154L34.3453 30.8154C34.9196 30.8154 35.3851 31.281 35.3851 31.8553C35.3851 32.4296 34.9196 32.8952 34.3453 32.8952H0.168941C0.0758562 32.8952 0.000396744 32.8197 0.000396748 32.7266L0.000396755 32.5583L0.000198378 32.5581L0 32.5579V1.17949C0 0.528076 0.528076 0 1.17949 0Z" fill="white"/>
</svg>
