<svg width="88" height="88" viewBox="0 0 88 88" fill="none" xmlns="http://www.w3.org/2000/svg">
<path fill-rule="evenodd" clip-rule="evenodd" d="M63.5148 30.6408C63.929 29.9234 63.6832 29.006 62.9658 28.5918C62.2484 28.1775 61.331 28.4234 60.9168 29.1408L56.8392 36.2034L50.6725 32.643C49.955 32.2288 49.0376 32.4746 48.6234 33.1921L45.1752 39.1647L31.7518 31.4147C30.3169 30.5862 28.4821 31.0779 27.6537 32.5127L22.033 42.2481C21.2046 43.6829 21.6962 45.5177 23.1311 46.3461L52.5759 63.3461C54.0108 64.1746 55.8456 63.6829 56.674 62.2481L62.2947 52.5127C63.1231 51.0779 62.6315 49.2431 61.1966 48.4147L47.7732 40.6647L50.4715 35.9911L56.6382 39.5515C57.3556 39.9657 58.273 39.7199 58.6872 39.0024L63.5148 30.6408ZM34.8491 37.981C34.1893 37.6001 33.3458 37.8262 32.9649 38.4859L31.9304 40.2777L30.1386 39.2432C29.4789 38.8623 28.6353 39.0883 28.2545 39.748C27.8736 40.4077 28.0996 41.2513 28.7593 41.6322L30.5511 42.6667L29.5166 44.4585C29.1357 45.1182 29.3618 45.9618 30.0215 46.3426C30.6812 46.7235 31.5248 46.4975 31.9056 45.8378L32.9401 44.046L34.7319 45.0805C35.3916 45.4614 36.2352 45.2353 36.6161 44.5756C36.997 43.9159 36.7709 43.0723 36.1112 42.6914L34.3194 41.657L35.3539 39.8652C35.7348 39.2055 35.5088 38.3619 34.8491 37.981ZM34.3194 41.657L32.9401 44.046L30.5511 42.6667L31.9304 40.2777L34.3194 41.657ZM52.582 51.4045C53.2417 51.7854 54.0853 51.5594 54.4662 50.8997C54.8471 50.24 54.6211 49.3964 53.9613 49.0155C53.3016 48.6346 52.4581 48.8606 52.0772 49.5204C51.6963 50.1801 51.9223 51.0236 52.582 51.4045ZM55.7284 55.6101C55.3475 56.2698 54.5039 56.4959 53.8442 56.115C53.1845 55.7341 52.9584 54.8905 53.3393 54.2308C53.7202 53.5711 54.5638 53.345 55.2235 53.7259C55.8832 54.1068 56.1092 54.9504 55.7284 55.6101ZM49.1338 57.3771C49.7935 57.758 50.637 57.532 51.0179 56.8723C51.3988 56.2125 51.1728 55.369 50.5131 54.9881C49.8534 54.6072 49.0098 54.8332 48.6289 55.493C48.248 56.1527 48.474 56.9962 49.1338 57.3771ZM49.7558 52.1618C49.3749 52.8215 48.5313 53.0476 47.8716 52.6667C47.2119 52.2858 46.9859 51.4422 47.3667 50.7825C47.7476 50.1228 48.5912 49.8968 49.2509 50.2777C49.9106 50.6585 50.1367 51.5021 49.7558 52.1618Z" fill="white"/>
</svg>
