<svg width="39" height="34" viewBox="0 0 39 34" fill="none" xmlns="http://www.w3.org/2000/svg">
<path fill-rule="evenodd" clip-rule="evenodd" d="M38.5349 3.17596C38.9491 2.45853 38.7033 1.54114 37.9858 1.12693C37.2684 0.712713 36.351 0.958526 35.9368 1.67596L32.2584 8.04705L26.7092 4.84317C25.9917 4.42896 25.0743 4.67477 24.6601 5.39221L21.4969 10.8711L9.50584 3.94801C8.07097 3.11958 6.23619 3.61121 5.40777 5.04609L0.500001 13.5466C-0.328426 14.9815 0.163201 16.8162 1.59808 17.6447L28.1782 32.9907C29.613 33.8191 31.4478 33.3275 32.2762 31.8926L37.184 23.3921C38.0124 21.9572 37.5208 20.1225 36.0859 19.294L24.095 12.3711L26.5082 8.19125L32.0575 11.3951C32.7749 11.8093 33.6923 11.5635 34.1065 10.8461L38.5349 3.17596ZM12.132 9.84745C11.5268 9.49806 10.753 9.7054 10.4036 10.3106L9.4548 11.954L7.81134 11.0051C7.20618 10.6557 6.43237 10.8631 6.08299 11.4682C5.7336 12.0734 5.94094 12.8472 6.54609 13.1966L8.18969 14.1455L9.45483 11.9542L11.6462 13.2194L12.5951 11.5758C12.9445 10.9706 12.7371 10.1968 12.132 9.84745ZM13.2898 14.1683C13.8949 14.5177 14.1023 15.2915 13.7529 15.8967C13.4035 16.5019 12.6297 16.7092 12.0245 16.3598L10.3809 15.4109L11.6462 13.2194L13.2898 14.1683ZM7.70365 17.5176C8.3088 17.867 9.08261 17.6597 9.432 17.0545L10.3809 15.4109L8.18947 14.1457L7.24054 15.7893C6.89115 16.3944 7.09849 17.1682 7.70365 17.5176ZM28.3983 22.1607C29.0035 22.5101 29.7773 22.3028 30.1267 21.6976C30.4761 21.0925 30.2687 20.3186 29.6636 19.9693C29.0584 19.6199 28.2846 19.8272 27.9352 20.4324C27.5859 21.0375 27.7932 21.8113 28.3983 22.1607ZM31.2847 26.0186C30.9353 26.6237 30.1615 26.8311 29.5563 26.4817C28.9512 26.1323 28.7439 25.3585 29.0932 24.7533C29.4426 24.1482 30.2164 23.9408 30.8216 24.2902C31.4267 24.6396 31.6341 25.4134 31.2847 26.0186ZM25.2354 27.6394C25.8405 27.9888 26.6143 27.7815 26.9637 27.1763C27.3131 26.5712 27.1058 25.7974 26.5006 25.448C25.8955 25.0986 25.1217 25.3059 24.7723 25.9111C24.4229 26.5162 24.6302 27.2901 25.2354 27.6394ZM25.806 22.8554C25.4566 23.4605 24.6828 23.6679 24.0776 23.3185C23.4725 22.9691 23.2651 22.1953 23.6145 21.5901C23.9639 20.985 24.7377 20.7776 25.3429 21.127C25.948 21.4764 26.1554 22.2502 25.806 22.8554Z" fill="white"/>
</svg>
