<svg width="65" height="65" viewBox="0 0 65 65" fill="none" xmlns="http://www.w3.org/2000/svg">
<path fill-rule="evenodd" clip-rule="evenodd" d="M18.881 11.5873C19.7845 10.1985 21.6428 9.80503 23.0316 10.7085L55.7519 31.9942C57.1408 32.8977 57.5342 34.756 56.6307 36.1448L45.5189 53.2259C44.6154 54.6148 42.7571 55.0082 41.3682 54.1047L8.64796 32.8191C7.25912 31.9156 6.86567 30.0573 7.76916 28.6684L18.881 11.5873ZM27.522 28.9796C26.5532 30.4688 24.5606 30.8907 23.0715 29.9219C21.5823 28.9532 21.1604 26.9606 22.1292 25.4714C23.0979 23.9822 25.0905 23.5603 26.5797 24.5291C28.0689 25.4979 28.4907 27.4904 27.522 28.9796ZM38.7104 40.0957C40.1996 41.0645 42.1922 40.6426 43.161 39.1534C44.1297 37.6642 43.7078 35.6716 42.2187 34.7029C40.7295 33.7341 38.7369 34.156 37.7681 35.6452C36.7994 37.1344 37.2213 39.1269 38.7104 40.0957ZM28.786 38.2445L21.4458 33.4694L16.542 36.4193L25.9793 42.5586L35.4167 48.698L36.1261 43.0195L28.786 38.2445L28.786 38.2445ZM37.2028 32.9749L30.1922 28.4142L28.0872 31.6499L35.0979 36.2106L37.2028 32.9749Z" fill="white"/>
</svg>
